{"title":"Lootera 2013 DVDRip x264 Hindi ESubs - ViZNU [P2PDL]","uid":8972273,"size":511269861,"categoryP":"video","categoryS":"movies","magnet":"?xt=urn:btih:c80b8f85c7a2150fc17d38a828717ce1573435b9&amp;dn=Lootera+2013+DVDRip+x264+Hindi+ESubs+-+ViZNU+%5BP2PDL%5D&amp;tr=udp%3A%2F%2Ftracker.openbittorrent.com%3A80&amp;tr=udp%3A%2F%2Fopen.demonii.com%3A1337&amp;tr=udp%3A%2F%2Ftracker.coppersurfer.tk%3A6969&amp;tr=udp%3A%2F%2Fexodus.desync.com%3A6969","seeders":1,"leechers":2,"uploader":"ValidusVyto","files":-1,"time":1380354877,"description":"_______ Visit us at our Semi Public Bittorrent Community ________\n  &lt;a href=&quot;\nhttp://p2pdl.com&quot; rel=&quot;nofollow&quot; target=&quot;_NEW&quot;&gt;\nhttp://p2pdl.com&lt;/a&gt;  _____________________________ &lt;a href=&quot; http://p2pdl.com&quot; rel=&quot;nofollow&quot; target=&quot;_NEW&quot;&gt; http://p2pdl.com&lt;/a&gt;\n\n\n\nLootera 2013 DVDRip x264 Hindi ESubs - ViZNU\n\n\nGenre: Drama | Romance\nPlot: The year is 1953. A visiting archaeologist called Varun Shrivastav comes to the\nvillage of Manikpur in West Bengal to excavate the temple grounds of the local Zamindar.\nWith knowledge and ...\nDirector: Vikramaditya Motwane\nStars: Ranveer Singh, Sonakshi Sinha, Adil Hussain.\nRated: U/A\n\nIMDb: &lt;a href=&quot;\nhttp://www.imdb.com/title/tt2224317/&quot; rel=&quot;nofollow&quot; target=&quot;_NEW&quot;&gt;\nhttp://www.imdb.com/title/tt2224317/&lt;/a&gt;\n\n\nFormat                         : MPEG-4\nFile size                      : 482 MiB\nDuration                       : 2h 20mn\nOverall bit rate               : 480 Kbps\n\nVideo\nFormat                         : AVC\nBit rate                       : 437 Kbps\nWidth                          : 640 pixels\nHeight                         : 272 pixels\nDisplay aspect ratio           : 2.35:1\nFrame rate mode                : Constant\nFrame rate                     : 25.000 fps\nBit depth                      : 10 bits\nStream size                    : 439 MiB (91%)\nWriting library                : x264 core 138 r2358\n\nAudio\nFormat                         : AAC\nBit rate                       : 39.9 Kbps\nChannel(s)                     : 2 channels\nChannel positions              : Front: L R\nSampling rate                  : 48.0 KHz\nStream size                    : 40.1 MiB (8%)\nLanguage                       : Hindi\n\nSubtitle                       : Yes(English)\n\nSource                         : NTSC DVD9\n &lt;a href=&quot;\nhttp://ultraimg.com/images/STij9.png&quot; rel=&quot;nofollow&quot; target=&quot;_NEW&quot;&gt;\nhttp://ultraimg.com/images/STij9.png&lt;/a&gt; &lt;a href=&quot;\nhttp://ultraimg.com/images/Xaci.png&quot; rel=&quot;nofollow&quot; target=&quot;_NEW&quot;&gt;\nhttp://ultraimg.com/images/Xaci.png&lt;/a&gt; &lt;a href=&quot;\nhttp://ultraimg.com/images/Y0oZ2.png&quot; rel=&quot;nofollow&quot; target=&quot;_NEW&quot;&gt;\nhttp://ultraimg.com/images/Y0oZ2.png&lt;/a&gt; &lt;a href=&quot;\nhttp://ultraimg.com/images/Wqe0G.png&quot; rel=&quot;nofollow&quot; target=&quot;_NEW&quot;&gt;\nhttp://ultraimg.com/images/Wqe0G.png&lt;/a&gt; &lt;a href=&quot;\nhttp://ultraimg.com/images/tQknK.png&quot; rel=&quot;nofollow&quot; target=&quot;_NEW&quot;&gt;\nhttp://ultraimg.com/images/tQknK.png&lt;/a&gt; &lt;a href=&quot;\nhttp://ultraimg.com/images/jIVUy.png&quot; rel=&quot;nofollow&quot; target=&quot;_NEW&quot;&gt;\nhttp://ultraimg.com/images/jIVUy.png&lt;/a&gt;\n\n----------------------------------------------------------------------------------------------------\n\n\nEncoded using revolutionary 10bit encoding, which enables us to provide you more crispier \nand sharper images at small sizes, just make sure you follow our instructions without a fault.\nRecommend to you to use latest version of VLC player. Install K-Lite Codec Pack or shark007 codecs\nin case of any kind of problem in playback (For non-VLC Media Player users). Alternatively, install\nCore AVC codecs, the fastest decoder that there is coupled with Community Center Codec Pack and play\non Windows Media Player Classic. Check sample to be sure.\nEnjoy!\n\nEncoder Notes:Looking For Early Access To Anything You Can Provide DVDScr, R5, DVDR, BluRay, Direct\nAudio, Music Releases and Seedboxes. We require dedicated servers, so as to do more \nand fast releases of movies.\nIf You Got anything to offer please contact us at &quot;&lt;a class=&quot;__cf_email__&quot; href=&quot;/cdn-cgi/l/email-protection&quot; data-cfemail=&quot;f8888a9fb8908d8b90d69b9795&quot;&gt;[email&amp;#160;protected]&lt;/a&gt;&lt;script cf-hash='f9e31' type=&quot;text/javascript&quot;&gt;\n/* &lt;![CDATA[ */!function(){try{var t=&quot;currentScript&quot;in document?document.currentScript:function(){for(var t=document.getElementsByTagName(&quot;script&quot;),e=t.length;e--;)if(t[e].getAttribute(&quot;cf-hash&quot;))return t[e]}();if(t&amp;&amp;t.previousSibling){var e,r,n,i,c=t.previousSibling,a=c.getAttribute(&quot;data-cfemail&quot;);if(a){for(e=&quot;&quot;,r=parseInt(a.substr(0,2),16),n=2;a.length-n;n+=2)i=parseInt(a.substr(n,2),16)^r,e+=String.fromCharCode(i);e=document.createTextNode(e),c.parentNode.replaceChild(e,c)}}}catch(u){}}();/* ]]&gt; */&lt;/script&gt;&quot;.\n\nFacebook Fan Page:  \nSearch P2PDL on FB and hit like!!!\n\nFor more of our team uploads visit @                                               &lt;a href=&quot;\nhttp://thepiratebay.se/user/vitamin_x&quot; rel=&quot;nofollow&quot; target=&quot;_NEW&quot;&gt;\nhttp://thepiratebay.se/user/vitamin_x&lt;/a&gt;\t","torrent":{"xt":"urn:btih:c80b8f85c7a2150fc17d38a828717ce1573435b9","amp;dn":"Lootera+2013+DVDRip+x264+Hindi+ESubs+-+ViZNU+%5BP2PDL%5D","amp;tr":["udp%3A%2F%2Ftracker.openbittorrent.com%3A80","udp%3A%2F%2Fopen.demonii.com%3A1337","udp%3A%2F%2Ftracker.coppersurfer.tk%3A6969","udp%3A%2F%2Fexodus.desync.com%3A6969"],"infoHash":"c80b8f85c7a2150fc17d38a828717ce1573435b9","infoHashBuffer":{"type":"Buffer","data":[200,11,143,133,199,162,21,15,193,125,56,168,40,113,124,225,87,52,53,185]},"announce":[],"urlList":[]}}